<?xml version="1.0" encoding="UTF-8" standalone="no"?>
<!-- Created with Inkscape (http://www.inkscape.org/) -->

<svg
   xmlns:dc="http://purl.org/dc/elements/1.1/"
   xmlns:cc="http://creativecommons.org/ns#"
   xmlns:rdf="http://www.w3.org/1999/02/22-rdf-syntax-ns#"
   xmlns:svg="http://www.w3.org/2000/svg"
   xmlns="http://www.w3.org/2000/svg"
   xmlns:sodipodi="http://sodipodi.sourceforge.net/DTD/sodipodi-0.dtd"
   xmlns:inkscape="http://www.inkscape.org/namespaces/inkscape"
   width="6.8791666mm"
   height="6.8791666mm"
   viewBox="0 0 6.8791666 6.8791666"
   version="1.1"
   id="svg8"
   inkscape:version="0.92.2 (5c3e80d, 2017-08-06)"
   sodipodi:docname="warning.svg">
  <defs
     id="defs2" />
  <sodipodi:namedview
     id="base"
     pagecolor="#ffffff"
     bordercolor="#666666"
     borderopacity="1.0"
     inkscape:pageopacity="0.0"
     inkscape:pageshadow="2"
     inkscape:zoom="16"
     inkscape:cx="9.8927502"
     inkscape:cy="12.861506"
     inkscape:document-units="mm"
     inkscape:current-layer="layer1"
     showgrid="false"
     fit-margin-top="0"
     fit-margin-left="0"
     fit-margin-right="0"
     fit-margin-bottom="0"
     inkscape:window-width="1366"
     inkscape:window-height="705"
     inkscape:window-x="-8"
     inkscape:window-y="-8"
     inkscape:window-maximized="1" />
  <metadata
     id="metadata5">
    <rdf:RDF>
      <cc:Work
         rdf:about="">
        <dc:format>image/svg+xml</dc:format>
        <dc:type
           rdf:resource="http://purl.org/dc/dcmitype/StillImage" />
        <dc:title />
      </cc:Work>
    </rdf:RDF>
  </metadata>
  <g
     inkscape:label="Layer 1"
     inkscape:groupmode="layer"
     id="layer1"
     transform="translate(-56.078117,-24.312757)">
    <rect
       style="fill:#ffffff;fill-opacity:1;stroke:none;stroke-width:0.17453228;stroke-miterlimit:2.29999995;stroke-dasharray:none;stroke-opacity:1"
       id="rect4907"
       width="6.8791666"
       height="6.8791666"
       x="56.078117"
       y="24.312757"
       ry="0" />
    <rect
       style="fill:#ffffff;fill-opacity:1;stroke:#000000;stroke-width:0.22687832;stroke-miterlimit:2.29999995;stroke-dasharray:none;stroke-opacity:1"
       id="rect4506"
       width="51.570053"
       height="6.7605515"
       x="4.4080963"
       y="14.535341" />
    <g
       id="g4732"
       transform="translate(-0.90570068,-7.3580183)"
       style="fill:#ffff00">
      <g
         transform="translate(4.7774428,-1.5869128)"
         id="g4673"
         style="fill:#ffff00">
        <rect
           ry="0"
           style="fill:#ffff00;fill-opacity:1;stroke:none;stroke-width:0.18679276;stroke-miterlimit:2.29999995;stroke-dasharray:none;stroke-opacity:1"
           id="rect4556-2"
           width="2.3727405"
           height="0.50554311"
           x="21.55043"
           y="40.362492"
           transform="rotate(-45.387116)" />
        <rect
           style="fill:#ffff00;fill-opacity:1;stroke:none;stroke-width:0.15119514;stroke-miterlimit:2.29999995;stroke-dasharray:none;stroke-opacity:1"
           id="rect4556-8"
           width="1.6317847"
           height="0.46954501"
           x="39.420662"
           y="-21.666569"
           transform="rotate(44.118536)" />
      </g>
    </g>
    <path
       style="fill:#808080;fill-opacity:1;stroke:none;stroke-width:0.13864166;stroke-miterlimit:2.29999995;stroke-dasharray:none;stroke-opacity:1"
       id="path4723"
       d="m 38.250495,4.7590106 c 0.01257,0.010028 0.02468,0.020667 0.03773,0.030084 0.04705,0.033976 0.105248,0.069184 0.15281,0.100325 0.120803,0.079093 0.240316,0.160157 0.361034,0.2393926 0.205566,0.1334471 0.419037,0.2544344 0.635564,0.3690974 0.09009,0.034535 0.172945,0.087224 0.264607,0.1173184 0.164727,0.02559 0.333701,0.020386 0.500028,0.022558 0.06105,4.233e-4 0.243435,0.01093 0.18315,0.0013 C 40.303268,5.62595 40.182543,5.696254 40.136117,5.627219 40.094227,5.564926 40.285445,5.611365 40.359793,5.600985 40.587652,5.569171 40.81085,5.519721 41.034547,5.4669842 41.478518,5.3528252 41.917625,5.22061 42.357069,5.0903114 42.69254,4.9858672 43.034395,4.9052507 43.378239,4.834177 c 0.150921,-0.028735 0.07888,-0.015568 0.216067,-0.039781 0,0 0.496501,0.070619 0.496501,0.070619 v 0 c -0.147817,0.021198 -0.07069,0.00939 -0.231328,0.035852 -0.353734,0.065915 -0.705403,0.1425789 -1.049798,0.248037 -0.442846,0.1267249 -0.884025,0.259433 -1.329123,0.3780539 -0.223142,0.05385 -0.445577,0.1042136 -0.672622,0.1392298 -0.07258,0.011195 -0.144967,0.02595 -0.21831,0.029751 -0.221501,0.011478 -0.443444,0.01183 -0.665202,0.016034 -0.06469,0.00122 -0.12941,1.709e-4 -0.194114,2.564e-4 -0.08192,-5.98e-5 -0.214776,3.704e-4 -0.300678,-0.00143 -0.08458,-0.00177 -0.171879,-0.00209 -0.25209,-0.03237 -0.08473,-0.038401 -0.167211,-0.082163 -0.248819,-0.1267203 -0.20198,-0.1241079 -0.405606,-0.2456022 -0.60416,-0.3751919 -0.197104,-0.1263073 -0.394677,-0.2529612 -0.60388,-0.3585945 0,0 0.52981,-0.058899 0.52981,-0.058899 z"
       inkscape:connector-curvature="0" />
    <path
       style="fill:#808080;fill-opacity:1;stroke:none;stroke-width:0.13864166;stroke-miterlimit:2.29999995;stroke-dasharray:none;stroke-opacity:1"
       id="path4725"
       d="m 41.555624,2.2090889 c 0.07613,0.057194 0.164092,0.094616 0.248881,0.1365908 0.04937,0.024443 0.168209,0.084958 0.216022,0.1092415 0.183594,0.095987 0.361095,0.2019786 0.525232,0.3285285 0.0579,0.038511 0.105354,0.1044075 0.173445,0.1274239 0.01127,0.00381 0.02363,0.00305 0.03543,0.00457 -0.161731,-0.00288 -0.323461,-0.00576 -0.485192,-0.00864 0.01582,-0.00235 0.03204,-0.00278 0.04742,-0.0071 0.04245,-0.011925 0.08612,-0.037348 0.122936,-0.059647 0.11424,-0.069198 0.217337,-0.1514094 0.321395,-0.2347387 0.24094,-0.2017121 0.481002,-0.4045715 0.729949,-0.5964615 0.173095,-0.1334244 0.289054,-0.2155468 0.466359,-0.3441681 0.326652,-0.2368595 0.654709,-0.4717029 0.984163,-0.70463967 0,0 0.467447,0.0461902 0.467447,0.0461902 v 0 c -0.351689,0.219612 -0.69533,0.4514428 -1.028546,0.6983766 -0.1671,0.122368 -0.296072,0.2142733 -0.457986,0.3427959 -0.237503,0.1885236 -0.461857,0.3926554 -0.683257,0.599604 -0.139092,0.1238544 -0.277445,0.2603831 -0.44807,0.3399542 -0.186986,-0.00172 -0.374104,0.00206 -0.560961,-0.00512 -0.01278,-5.027e-4 -0.02315,-0.011004 -0.03401,-0.017751 -0.05967,-0.037052 -0.106915,-0.0909 -0.161456,-0.1344306 C 41.879604,2.7037845 41.708689,2.6004675 41.530955,2.5093521 41.362746,2.4265839 41.19005,2.3532234 41.024487,2.265154 c 0,0 0.531137,-0.056064 0.531137,-0.056064 z"
       inkscape:connector-curvature="0" />
    <path
       style="fill:#ffffff;fill-opacity:1;stroke:none;stroke-width:0.13864166;stroke-miterlimit:2.29999995;stroke-dasharray:none;stroke-opacity:1"
       id="path4734"
       d="m 15.039835,-7.6321234 c 0.665877,0.7113667 1.38323,1.3670172 2.126154,1.996408 0.855834,0.7123197 1.757667,1.3825818 2.751519,1.8904918 -0.01397,-0.1042927 0.216474,0.137378 0.269881,0.062087 0.01751,-0.024688 -0.09753,-0.031284 -0.100138,-0.048179 -0.0028,-0.018431 0.01781,-0.033247 0.03054,-0.046878 0.04176,-0.044723 0.08812,-0.084921 0.132183,-0.1273823 0.452706,-0.5413203 0.882483,-1.1018387 1.309348,-1.663673 0.692564,-0.9770874 1.499935,-1.8610334 2.337444,-2.7139521 0.281053,-0.2814815 0.569223,-0.5555972 0.852555,-0.8347482 0.774191,-0.7625647 1.85262,0.3323068 1.078429,1.0948714 v 0 c -0.277459,0.2732233 -0.559287,0.541886 -0.834862,0.8170355 -0.792708,0.8059901 -1.55646,1.6415908 -2.210059,2.5667303 -0.478594,0.6294535 -0.954574,1.2639751 -1.481171,1.8543222 -0.167387,0.1546145 -0.328883,0.320077 -0.532113,0.4307112 -0.533718,0.2905455 -1.026665,0.2102419 -1.556849,-0.025299 -0.125233,-0.065133 -0.252552,-0.1264042 -0.3757,-0.1953988 -0.951447,-0.5330536 -1.826858,-1.1946413 -2.665029,-1.8887034 -0.774226,-0.6573139 -1.523909,-1.3400556 -2.21881,-2.0817623 -0.7684,-0.7684 0.318281,-1.8550813 1.086681,-1.0866817 z"
       inkscape:connector-curvature="0" />
    <path
       style="fill:#808080;fill-opacity:1;stroke:none;stroke-width:0.13864166;stroke-miterlimit:2.29999995;stroke-dasharray:none;stroke-opacity:1"
       id="path4748"
       d="m 22.156656,-4.9366849 c 0.218619,0.4659968 0.528408,0.8826333 0.836997,1.2922115 0.406066,0.5079171 0.870496,0.9742079 1.397864,1.3568613 0.26996,0.1958806 0.382309,0.2495291 0.662411,0.4073276 0.09175,0.034567 0.180661,0.077876 0.275241,0.1037011 0.07815,0.02134 0.32122,0.036756 0.240206,0.03704 -0.400152,0.0014 -0.803222,0.018267 -1.199992,-0.03367 -0.09416,-0.012325 0.184492,-0.048714 0.270975,-0.087938 0.299479,-0.1358246 0.461648,-0.2782394 0.732496,-0.4754632 0.148766,-0.1199958 0.298849,-0.2383777 0.446299,-0.3599874 0.229157,-0.1889977 0.904994,-0.7639523 1.113906,-0.9376992 0.653338,-0.5433647 1.317347,-1.0722766 1.987053,-1.5952179 0.984332,-0.7699975 1.98161,-1.5231631 2.97775,-2.2777735 0,0 1.369346,0.131958 1.369346,0.131958 v 0 c -1.087057,0.704133 -2.140691,1.4604127 -3.164499,2.2534592 -0.660969,0.5163573 -1.315363,1.0389748 -1.946211,1.5922029 -0.501992,0.440227 -0.55893,0.5137303 -1.034037,0.946465 -0.136133,0.1239907 -0.27491,0.2450451 -0.412366,0.3675677 -0.241679,0.2074759 -0.393415,0.3561904 -0.658278,0.5212165 -0.08087,0.050385 -0.159082,0.1235538 -0.254073,0.1309593 -0.321426,0.025058 -1.325321,0.1745861 -1.878872,-0.048588 -0.0873,-0.035197 -0.168644,-0.083666 -0.252966,-0.1254988 -0.258417,-0.1695781 -0.363198,-0.2309723 -0.615616,-0.4307183 -0.518111,-0.4099968 -0.983044,-0.8842954 -1.411514,-1.385975 -0.34902,-0.4285409 -0.702609,-0.8582676 -1.000338,-1.3246441 0,0 1.518218,-0.057797 1.518218,-0.057797 z"
       inkscape:connector-curvature="0" />
    <path
       style="fill:#ee4c4c;fill-opacity:1;stroke-width:1.07692289"
       d="M 13 5.5 A 7.4999999 7.4999999 0 0 0 5.5 13 A 7.4999999 7.4999999 0 0 0 13 20.5 A 7.4999999 7.4999999 0 0 0 20.5 13 A 7.4999999 7.4999999 0 0 0 13 5.5 z M 12.882812 8.2832031 L 13.078125 8.2832031 C 13.290043 8.2832031 13.77563 8.4748826 13.755859 8.8203125 L 13.460938 13.970703 C 13.440906 14.316152 13.290077 14.595703 13.078125 14.595703 L 12.882812 14.595703 C 12.670858 14.595703 12.52358 14.31554 12.5 13.970703 L 12.146484 8.7773438 C 12.122673 8.4325375 12.670858 8.2832031 12.882812 8.2832031 z M 13 15.861328 A 0.74761256 0.74761256 0 0 1 13.748047 16.609375 A 0.74761256 0.74761256 0 0 1 13 17.357422 A 0.74761256 0.74761256 0 0 1 12.251953 16.609375 A 0.74761256 0.74761256 0 0 1 13 15.861328 z "
       transform="matrix(0.26458333,0,0,0.26458333,56.078117,24.312757)"
       id="path3699-1" />
    <rect
       style="fill:#ffffff;fill-opacity:1;stroke:none;stroke-width:0.17453228;stroke-miterlimit:2.29999995;stroke-dasharray:none;stroke-opacity:1"
       id="rect4907-6"
       width="6.8791666"
       height="6.8791666"
       x="42.986767"
       y="24.495218"
       ry="0" />
    <g
       id="g4926"
       transform="translate(1.9024549,9.8221612)">
      <circle
         style="fill:#00ae04;fill-opacity:1;stroke-width:0.28493586"
         r="1.984375"
         cy="18.11264"
         cx="44.523895"
         id="path3699" />
      <path
         sodipodi:nodetypes="cccccccccccccccccccccc"
         inkscape:connector-curvature="0"
         d="m 43.831131,18.106969 c 0.0533,0.143405 0.136602,0.27443 0.216176,0.405586 0.09531,0.150649 0.192539,0.300333 0.299213,0.443962 0.0067,0.0081 0.05184,0.06434 0.06588,0.07249 0.0084,0.0049 0.03897,0.0045 0.02915,0.0042 -0.122181,-0.0035 -0.245787,0.005 -0.366417,-0.01383 -0.02067,-0.0032 0.03546,-0.02169 0.05069,-0.0354 0.0249,-0.02239 0.04608,-0.04826 0.06912,-0.07237 0.259041,-0.317568 0.472925,-0.665599 0.691,-1.009174 0.171718,-0.269912 0.34328,-0.539913 0.514645,-0.81003 l 0.354646,0.0198 v 0 c -0.197912,0.260985 -0.382467,0.530774 -0.557306,0.80632 -0.05618,0.08967 -0.197096,0.314089 -0.252942,0.405121 -0.125265,0.204177 -0.245643,0.411207 -0.377575,0.61161 -0.01825,0.02598 -0.03583,0.0524 -0.05476,0.07793 -0.01278,0.01724 -0.03961,0.03863 -0.06154,0.04157 -0.372134,0.04972 -0.362726,0.110898 -0.490079,-0.07684 -0.0954,-0.148202 -0.189095,-0.297363 -0.282426,-0.446747 -0.08482,-0.135541 -0.168873,-0.27157 -0.255197,-0.406228 l 0.407731,-0.01802 z"
         id="path4727"
         style="fill:#ffffff;fill-opacity:1;stroke:none;stroke-width:0.10311359;stroke-miterlimit:2.29999995;stroke-dasharray:none;stroke-opacity:1" />
    </g>
  </g>
</svg>
